<svg width="44" height="47" viewBox="0 0 44 47" fill="none" xmlns="http://www.w3.org/2000/svg">
<path d="M38.1333 22.7886C39.05 23.4159 39.8674 24.1273 40.5854 24.9229C41.3035 25.7184 41.9222 26.5905 42.4417 27.5391C42.9611 28.4876 43.3431 29.4897 43.5875 30.5454C43.8319 31.6011 43.9694 32.6797 44 33.7812C44 35.6019 43.6562 37.3154 42.9688 38.9219C42.2812 40.5283 41.334 41.9282 40.1271 43.1216C38.9201 44.3149 37.5222 45.2559 35.9333 45.9443C34.3444 46.6328 32.6333 46.9847 30.8 47C29.4097 47 28.0653 46.7935 26.7667 46.3804C25.4681 45.9673 24.2764 45.3706 23.1917 44.5903C22.1069 43.8101 21.1444 42.8768 20.3042 41.7905C19.4639 40.7043 18.8146 39.5033 18.3563 38.1875H0V2.9375H5.86667V0H8.8V2.9375H29.3333V0H32.2667V2.9375H38.1333V22.7886ZM2.93333 5.875V11.75H35.2V5.875H32.2667V8.8125H29.3333V5.875H8.8V8.8125H5.86667V5.875H2.93333ZM17.6688 35.25C17.6229 34.7757 17.6 34.2861 17.6 33.7812C17.6 32.4655 17.7833 31.188 18.15 29.9487C18.5167 28.7095 19.0743 27.5391 19.8229 26.4375H17.6V23.5H20.5333V25.4736C21.1597 24.6934 21.8549 24.0049 22.6187 23.4082C23.3826 22.8115 24.2076 22.299 25.0938 21.8706C25.9799 21.4422 26.9042 21.1209 27.8667 20.9067C28.8292 20.6925 29.8069 20.5778 30.8 20.5625C32.3278 20.5625 33.7944 20.8149 35.2 21.3198V14.6875H2.93333V35.25H17.6688ZM30.8 44.0625C32.2208 44.0625 33.55 43.7948 34.7875 43.2593C36.025 42.7238 37.1097 41.9894 38.0417 41.0562C38.9736 40.1229 39.7069 39.0366 40.2417 37.7974C40.7764 36.5581 41.0514 35.2194 41.0667 33.7812C41.0667 32.3584 40.7993 31.0273 40.2646 29.7881C39.7299 28.5488 38.9965 27.4626 38.0646 26.5293C37.1326 25.596 36.0479 24.8617 34.8104 24.3262C33.5729 23.7907 32.2361 23.5153 30.8 23.5C29.3792 23.5 28.05 23.7677 26.8125 24.3032C25.575 24.8387 24.4903 25.5731 23.5583 26.5063C22.6264 27.4396 21.8931 28.5259 21.3583 29.7651C20.8236 31.0044 20.5486 32.3431 20.5333 33.7812C20.5333 35.2041 20.8007 36.5352 21.3354 37.7744C21.8701 39.0137 22.6035 40.0999 23.5354 41.0332C24.4674 41.9665 25.5521 42.7008 26.7896 43.2363C28.0271 43.7718 29.3639 44.0472 30.8 44.0625ZM32.2667 32.3125H36.6667V35.25H29.3333V26.4375H32.2667V32.3125ZM5.86667 23.5H8.8V26.4375H5.86667V23.5ZM11.7333 23.5H14.6667V26.4375H11.7333V23.5ZM11.7333 17.625H14.6667V20.5625H11.7333V17.625ZM5.86667 29.375H8.8V32.3125H5.86667V29.375ZM11.7333 29.375H14.6667V32.3125H11.7333V29.375ZM20.5333 20.5625H17.6V17.625H20.5333V20.5625ZM26.4 20.5625H23.4667V17.625H26.4V20.5625ZM32.2667 20.5625H29.3333V17.625H32.2667V20.5625Z" fill="#F24E1E"/>
</svg>
