<svg width="36" height="52" viewBox="0 0 36 52" fill="none" xmlns="http://www.w3.org/2000/svg">
<path d="M18 -9.29107e-07C8.06287 -9.29107e-07 -5.96449e-06 7.48777 -5.96449e-06 16.7143C-5.96449e-06 31.5714 18 52 18 52C18 52 36 31.5714 36 16.7143C36 7.48777 27.9371 -9.29107e-07 18 -9.29107e-07ZM18 26C16.576 26 15.1839 25.5643 13.9999 24.7481C12.8159 23.9318 11.893 22.7716 11.3481 21.4142C10.8031 20.0568 10.6605 18.5632 10.9383 17.1222C11.2162 15.6812 11.9019 14.3575 12.9088 13.3186C13.9158 12.2797 15.1987 11.5722 16.5953 11.2856C17.992 10.999 19.4397 11.1461 20.7553 11.7083C22.0709 12.2706 23.1954 13.2227 23.9866 14.4443C24.7777 15.666 25.2 17.1022 25.2 18.5714C25.1979 20.5409 24.4387 22.4292 23.0889 23.8218C21.7391 25.2145 19.9089 25.9978 18 26Z" fill="#F24E1E"/>
</svg>
