<svg width="48" height="55" viewBox="0 0 48 55" fill="none" xmlns="http://www.w3.org/2000/svg">
<g filter="url(#filter0_d_22_33)">
<path d="M34.9842 13.8857C37.486 13.3021 40.7447 10.6936 41.2406 9.40891C41.5315 8.65691 40.0811 7.48191 39.6933 7.00799C38.8059 5.92698 39.1638 5.39432 39.5069 4.10573C39.8984 2.64089 38.97 1.0233 37.6538 0.3888C36.3376 -0.245702 34.7642 -0.0459511 33.4406 0.572884C32.1169 1.19172 30.9872 2.18656 29.8798 3.16573C29.0707 2.62914 27.7807 0.25955 25.6927 1.7988C24.2498 2.86022 24.1193 5.17107 24.3057 7.01582C24.7419 11.2733 25.7412 13.4823 27.6241 14.0776C30.0029 14.8296 32.6352 14.434 34.9842 13.8857Z" fill="#FFCC55"/>
<path d="M39.0483 1.63821C38.7314 7.37615 33.4033 11.1832 30.8754 12.8595L32.5159 14.34C32.5159 14.34 33.5562 14.3635 34.9805 13.8857C37.4226 13.071 40.9908 10.768 41.2369 9.4089C41.5986 7.43098 39.6672 7.86182 39.231 6.29906C39.0035 5.47264 40.3383 3.90989 39.0483 1.63821ZM29.8836 3.16964C29.8836 3.16964 28.9328 2.14738 28.2281 1.6813C27.8776 2.37455 27.6278 3.12655 27.5048 3.90205C27.2848 5.26506 27.5048 7.1999 28.023 8.64124C28.1051 8.86449 28.4108 8.82924 28.4444 8.59424C28.8918 5.49614 29.8836 3.16964 29.8836 3.16964Z" fill="#E2A610"/>
<path d="M23.2395 13.3804C23.2395 13.3804 11.6102 14.7003 6.36418 25.3067C1.11815 35.9131 5.57746 42.3443 10.2978 44.6864C15.0181 47.0286 26.9121 47.855 34.6487 45.928C42.3854 44.001 44.3205 40.006 43.9589 36.1481C43.4331 30.5159 38.4518 27.0535 38.4518 27.0535C38.4518 27.0535 38.6494 20.0975 33.5115 15.5816C28.9516 11.5709 23.2395 13.3804 23.2395 13.3804Z" fill="#FFCC55"/>
<path d="M28.0118 31.2287C25.5174 27.9231 22.5719 27.4805 21.6285 26.2937C21.114 25.6475 20.812 24.9934 20.9276 24.1826C21.0506 23.321 22.0014 22.7256 22.7396 22.5807C23.6009 22.4084 25.6553 22.4985 27.3816 24.2257C27.7918 24.6331 27.6426 25.2676 27.6315 25.8355C27.6016 27.0536 29.2608 28.2364 30.6031 27.2181C31.9491 26.1958 30.9163 23.9202 30.0475 22.8157C29.3913 21.9815 27.0125 20.1445 24.0558 19.8547C23.2243 19.7725 19.8799 19.2515 17.9485 23.1095C17.3929 24.2179 17.1879 26.8969 20.0961 29.1607C20.7039 29.6347 23.8582 31.3188 24.7344 32.4116C26.2519 34.3033 25.2116 35.9679 24.026 36.1873C20.7934 36.7826 18.9626 34.9457 18.6234 33.9391C18.381 33.2223 18.6345 32.4468 18.3213 31.7732C18.0007 31.0799 17.3445 30.8057 16.651 31.0368C14.3766 31.7967 15.0999 34.4091 16.1066 35.8465C17.1841 37.3858 18.5078 38.314 19.9954 38.8232C25.5472 40.7228 28.2168 37.7226 28.6829 35.5253C29.0259 33.9156 28.9886 32.5212 28.0118 31.2287Z" fill="#6B4B46"/>
<path d="M26.6697 17.6222C21.9456 28.2207 21.1328 41.604 21.1328 41.604" stroke="#6B4B46" stroke-width="5" stroke-miterlimit="10"/>
<path d="M30.5883 10.9521C33.7351 12.0292 34.4324 15.0176 34.2049 15.8323C33.9328 16.7879 30.4466 13.0671 25.2639 13.2903C23.4519 13.3687 23.9776 12.2015 24.8165 11.5278C25.9239 10.6388 27.7844 9.99642 30.5883 10.9521Z" fill="#6D4C41"/>
<path d="M30.5883 10.9521C33.7351 12.0292 34.4324 15.0176 34.2049 15.8323C33.9328 16.7879 30.4466 13.0671 25.2639 13.2903C23.4519 13.3687 23.9776 12.2015 24.8165 11.5278C25.9239 10.6388 27.7844 9.99642 30.5883 10.9521Z" fill="#6B4B46"/>
<path d="M36.114 21.4879C36.5093 21.202 37.8366 21.6955 38.2095 24.4255C38.3922 25.761 38.4481 27.0535 38.4481 27.0535C38.4481 27.0535 36.8821 25.577 36.3639 24.539C35.7114 23.227 35.4578 21.9579 36.114 21.4879Z" fill="#E2A610"/>
</g>
<defs>
<filter id="filter0_d_22_33" x="0" y="0" width="48" height="55" filterUnits="userSpaceOnUse" color-interpolation-filters="sRGB">
<feFlood flood-opacity="0" result="BackgroundImageFix"/>
<feColorMatrix in="SourceAlpha" type="matrix" values="0 0 0 0 0 0 0 0 0 0 0 0 0 0 0 0 0 0 127 0" result="hardAlpha"/>
<feOffset dy="4"/>
<feGaussianBlur stdDeviation="2"/>
<feComposite in2="hardAlpha" operator="out"/>
<feColorMatrix type="matrix" values="0 0 0 0 0 0 0 0 0 0 0 0 0 0 0 0 0 0 0.25 0"/>
<feBlend mode="normal" in2="BackgroundImageFix" result="effect1_dropShadow_22_33"/>
<feBlend mode="normal" in="SourceGraphic" in2="effect1_dropShadow_22_33" result="shape"/>
</filter>
</defs>
</svg>
